<svg xmlns="http://www.w3.org/2000/svg" viewBox="0 0 220 220" role="img" aria-label="Rusty PAR64 can light">
  <defs>
    <linearGradient id="rustBody" x1="0" y1="0" x2="1" y2="1">
      <stop offset="0%" stop-color="#8c7864"/>
      <stop offset="38%" stop-color="#5f4b3a"/>
      <stop offset="100%" stop-color="#3f3228"/>
    </linearGradient>
    <radialGradient id="lamp" cx="50%" cy="50%" r="54%">
      <stop offset="0%" stop-color="#fff7c2"/>
      <stop offset="45%" stop-color="#fbbf24"/>
      <stop offset="100%" stop-color="#ea580c"/>
    </radialGradient>
  </defs>

  <ellipse cx="110" cy="198" rx="66" ry="14" fill="#090c10" opacity="0.38"/>

  <rect x="70" y="160" width="80" height="22" rx="7" fill="#4a3b2d"/>
  <rect x="88" y="140" width="44" height="22" rx="6" fill="#5b4938"/>

  <rect x="47" y="82" width="20" height="72" rx="10" fill="#564638"/>
  <rect x="153" y="82" width="20" height="72" rx="10" fill="#564638"/>

  <circle cx="110" cy="96" r="46" fill="url(#rustBody)" stroke="#b49a84" stroke-opacity="0.45" stroke-width="4"/>
  <circle cx="110" cy="96" r="35" fill="#1b1714" stroke="#b89d86" stroke-opacity="0.5"/>
  <circle cx="110" cy="96" r="25" fill="url(#lamp)"/>

  <g stroke="#c3aa92" stroke-opacity="0.65" stroke-width="2.8" stroke-linecap="round">
    <line x1="75" y1="70" x2="84" y2="79"/>
    <line x1="145" y1="70" x2="136" y2="79"/>
    <line x1="66" y1="96" x2="78" y2="96"/>
    <line x1="154" y1="96" x2="142" y2="96"/>
    <line x1="75" y1="122" x2="84" y2="113"/>
    <line x1="145" y1="122" x2="136" y2="113"/>
  </g>

  <circle cx="74" cy="60" r="3" fill="#8b5a2b"/>
  <circle cx="146" cy="130" r="3" fill="#7c2d12"/>
</svg>
